<?xml version="1.0" encoding="utf-8"?>
<!-- Generator: Adobe Illustrator 16.0.0, SVG Export Plug-In . SVG Version: 6.00 Build 0)  -->
<!DOCTYPE svg PUBLIC "-//W3C//DTD SVG 1.1//EN" "http://www.w3.org/Graphics/SVG/1.1/DTD/svg11.dtd">
<svg version="1.1" id="Layer_1" xmlns="http://www.w3.org/2000/svg" xmlns:xlink="http://www.w3.org/1999/xlink" x="0px" y="0px"
	 width="100px" height="100px" viewBox="0 0 100 100" enable-background="new 0 0 100 100" xml:space="preserve">
<g>
	<path d="M16.382,36.294c3.886-4.035,6.484-6.053,7.793-6.053c0.58,0,0.87,0.357,0.87,1.071c0,0.765-0.92,2.218-2.761,4.361
		c-1.841,2.143-2.762,3.402-2.762,3.778c0,0.351,0.295,0.526,0.886,0.526c0.15,0,0.225,0.1,0.225,0.301
		c0,0.238-0.263,0.357-0.789,0.357c-0.934,0-1.401-0.458-1.401-1.372c0-1.053,0.719-2.437,2.158-4.154
		c1.761-2.105,2.71-3.302,2.85-3.59c0.011-0.15-0.054-0.226-0.193-0.226c-0.591,0-2.093,1.197-4.509,3.59
		c-1.804,1.78-3.253,3.309-4.348,4.586c-0.44,0.514-0.8,0.89-1.079,1.128c-0.161,0-0.314-0.119-0.459-0.357
		c-0.145-0.238-0.217-0.458-0.217-0.658c0-0.288,0.735-1.522,2.206-3.703l2.561-3.759c-1.042,1.14-2.34,2.425-3.897,3.853
		l-3.092,2.763c-1.556,1.241-2.753,1.861-3.591,1.861c-0.129,0-0.193-0.077-0.193-0.232c0-0.232,0.107-0.38,0.322-0.445
		c0.891-0.263,1.675-0.638,2.351-1.125c1.256-0.9,3.14-2.588,5.652-5.065l3.253-3.208c0.687-0.677,2.592-3.151,5.716-7.425
		c2.813-3.847,4.353-5.771,4.621-5.771c0.387,0,0.58,0.282,0.58,0.846c0,0.389-1.079,2.068-3.237,5.038L16.382,36.294z"/>
	<path d="M26.301,36.645c-2.866,2.636-4.841,3.954-5.926,3.954c-0.129,0-0.193-0.083-0.193-0.251c0-0.232,0.129-0.374,0.387-0.425
		c1.009-0.188,2.405-1.096,4.187-2.726l2.077-1.898l3.333-3.101c1.524-1.228,2.829-1.842,3.913-1.842
		c0.805,0,1.256,0.471,1.353,1.413c0.418-0.465,0.708-0.698,0.869-0.698c0.354,0,0.532,0.17,0.532,0.51
		c0,0.439-0.824,1.783-2.472,4.03c-1.648,2.248-2.472,3.556-2.472,3.926c0,0.259,0.177,0.395,0.532,0.407
		c0.354,0.013,0.531,0.122,0.531,0.328c0,0.258-0.365,0.386-1.095,0.386c-0.719,0-1.079-0.37-1.079-1.111
		c0-0.59,0.29-1.431,0.87-2.523l-1.997,1.978c-0.977,0.854-1.755,1.281-2.334,1.281c-0.923,0-1.385-0.546-1.385-1.639
		C25.931,38.038,26.054,37.373,26.301,36.645z M34.304,31.125c-0.633,0-1.943,1.105-3.929,3.316
		c-1.986,2.21-2.979,3.686-2.979,4.427c0,0.339,0.139,0.509,0.418,0.509c0.612,0,1.924-1.083,3.937-3.25
		c2.013-2.166,3.019-3.626,3.019-4.38C34.771,31.333,34.616,31.125,34.304,31.125z"/>
	<path d="M43.435,34.903c2.952-2.919,5.024-4.379,6.216-4.379c0.762,0,1.143,0.42,1.143,1.259c0,0.739-0.864,2.077-2.592,4.013
		c-1.729,1.936-2.593,3.105-2.593,3.506s0.196,0.617,0.588,0.648c0.392,0.031,0.588,0.141,0.588,0.329
		c0,0.25-0.389,0.375-1.167,0.375c-0.896,0-1.345-0.464-1.345-1.394c0-0.778,0.429-1.764,1.289-2.957
		c0.44-0.615,1.234-1.563,2.383-2.844c0.859-0.954,1.289-1.532,1.289-1.733c0-0.163-0.097-0.245-0.29-0.245
		c-0.612,0-1.943,0.955-3.994,2.863c-1.707,1.583-2.974,2.882-3.8,3.899c-1.052,1.293-1.691,1.94-1.917,1.94
		c-0.172,0-0.328-0.097-0.467-0.292c-0.14-0.194-0.209-0.397-0.209-0.611c0-0.288,0.741-1.453,2.222-3.496l2.657-3.665l-4.122,3.91
		l-3.043,2.725c-1.546,1.229-2.732,1.842-3.559,1.842c-0.139,0-0.209-0.075-0.209-0.226c0-0.226,0.151-0.376,0.451-0.451
		c0.408-0.087,0.886-0.275,1.433-0.564c0.784-0.401,2.383-1.742,4.798-4.022c2.168-2.055,3.73-3.627,4.686-4.718
		c0.161-0.188,0.413-0.414,0.757-0.677c0.171-0.075,0.354-0.113,0.547-0.113c0.183,0,0.368,0.072,0.556,0.216
		c0.188,0.144,0.282,0.316,0.282,0.517C46.011,30.787,45.152,32.234,43.435,34.903z"/>
	<path d="M52.533,37.554c-0.537,0.15-1.546,0.727-3.028,1.729c-1.31,0.877-2.303,1.316-2.979,1.316
		c-0.129,0-0.193-0.083-0.193-0.251c0-0.232,0.14-0.374,0.419-0.425c0.655-0.125,1.578-0.591,2.77-1.401
		c1.31-0.872,2.377-1.419,3.205-1.644c0.492-1.391,1.514-2.851,3.059-4.379c1.643-1.642,3.043-2.462,4.203-2.462
		c0.859,0,1.287,0.426,1.287,1.278c0,1.116-0.906,2.331-2.721,3.646c-1.33,0.978-2.693,1.742-4.09,2.293
		c-0.15,0.398-0.225,0.815-0.225,1.25c0,0.647,0.193,1.07,0.584,1.27c0.193,0.087,0.561,0.143,1.102,0.168
		c0.389,0.013,0.584,0.122,0.584,0.327c0,0.321-0.662,0.481-1.988,0.481c-1.4,0-2.102-0.708-2.102-2.124
		C52.42,38.299,52.457,37.942,52.533,37.554z M54.658,36.501c0.988-0.564,2.029-1.328,3.123-2.293
		c1.461-1.266,2.191-2.268,2.191-3.008c0-0.301-0.119-0.451-0.355-0.451c-0.697,0-1.646,0.752-2.85,2.256
		C55.693,34.371,54.99,35.536,54.658,36.501z"/>
	<path d="M68.217,37.065c-1.868,2.13-3.242,3.195-4.122,3.195c-0.666,0-0.999-0.432-0.999-1.297c0-1.015,0.387-2.155,1.16-3.421
		l2.077-2.857l-4.605,4.455c-2.598,2.306-4.423,3.458-5.475,3.458c-0.129,0-0.193-0.082-0.193-0.244
		c0-0.213,0.155-0.357,0.467-0.433c0.397-0.087,0.864-0.275,1.4-0.564c0.623-0.338,1.938-1.428,3.945-3.271
		c0.924-0.839,2.281-2.155,4.074-3.947c0.301-0.363,0.783-0.858,1.449-1.485c0.269-0.2,0.516-0.301,0.74-0.301
		c0.623,0,0.935,0.238,0.935,0.714c0,0.489-0.752,1.704-2.255,3.646s-2.254,3.327-2.254,4.154c0,0.213,0.097,0.32,0.29,0.32
		c0.644,0,2.077-1.435,4.299-4.305c2.223-2.869,3.483-4.304,3.784-4.304c0.15,0,0.298,0.091,0.443,0.272
		c0.145,0.182,0.217,0.367,0.217,0.555c0,0.301-0.829,1.569-2.487,3.806c-1.659,2.237-2.488,3.668-2.488,4.295
		c0,0.289,0.183,0.439,0.548,0.451c0.364,0.013,0.547,0.119,0.547,0.32c0,0.238-0.271,0.357-0.811,0.357
		c-0.909,0-1.363-0.401-1.363-1.203C67.54,38.857,67.766,38.067,68.217,37.065z"/>
	<path d="M78.152,34.527l-3.978,3.496c-2.147,1.717-3.72,2.575-4.718,2.575c-0.129,0-0.193-0.073-0.193-0.219
		c0-0.231,0.198-0.384,0.596-0.458c0.45-0.075,0.972-0.301,1.562-0.677c0.709-0.438,1.916-1.398,3.623-2.878
		c1.245-1.053,2.561-2.22,3.945-3.499c1.6-2.797,3.8-5.832,6.603-9.105c3.112-3.637,5.2-5.456,6.264-5.456
		c0.493,0,0.74,0.307,0.74,0.921c0,1.579-1.587,4.104-4.761,7.575c-2.005,2.181-4.188,4.292-6.547,6.334
		c-0.547,0.478-1.228,1.489-2.043,3.035c-0.847,1.583-1.271,2.702-1.271,3.355c0,0.314,0.295,0.471,0.886,0.471
		c0.14,0,0.21,0.098,0.21,0.292c0,0.244-0.282,0.365-0.844,0.365c-0.888,0-1.331-0.526-1.331-1.579
		C76.896,38.049,77.314,36.532,78.152,34.527z M91.743,18.889c-0.419,0-2.075,1.913-4.971,5.738
		c-2.756,3.663-4.509,6.177-5.259,7.544c7.013-6.66,10.519-10.987,10.519-12.981C92.032,18.989,91.936,18.889,91.743,18.889z"/>
</g>
</svg>
