<?xml version="1.0" encoding="utf-8"?>
<!-- Generator: Adobe Illustrator 16.0.0, SVG Export Plug-In . SVG Version: 6.00 Build 0)  -->
<!DOCTYPE svg PUBLIC "-//W3C//DTD SVG 1.1//EN" "http://www.w3.org/Graphics/SVG/1.1/DTD/svg11.dtd">
<svg version="1.1" id="Layer_1" xmlns="http://www.w3.org/2000/svg" xmlns:xlink="http://www.w3.org/1999/xlink" x="0px" y="0px"
	 width="60px" height="60px" viewBox="0 0 60 60" enable-background="new 0 0 60 60" xml:space="preserve">
<path fill="#EDE43B" stroke="#424143" stroke-width="2" stroke-miterlimit="10" d="M44.998,18.607c0,2.831-2.295,5.126-5.126,5.126
	l0,0c-2.832,0-5.127-2.295-5.127-5.126l0,0c0-2.832,2.295-5.127,5.127-5.127l0,0C42.703,13.48,44.998,15.775,44.998,18.607
	L44.998,18.607z"/>
<path fill="#424143" stroke="#424143" stroke-miterlimit="10" d="M40.441,7.185c0-0.298-0.241-0.54-0.539-0.54h-0.062
	c-0.298,0-0.539,0.241-0.539,0.54v4.048c0,0.298,0.241,0.54,0.539,0.54h0.062c0.298,0,0.539-0.242,0.539-0.54V7.185z"/>
<path fill="#424143" stroke="#424143" stroke-miterlimit="10" d="M32.197,10.127c-0.211-0.21-0.553-0.21-0.764,0l-0.043,0.043
	c-0.209,0.211-0.209,0.552,0,0.763l2.862,2.862c0.211,0.211,0.552,0.211,0.765,0l0.041-0.042c0.211-0.21,0.211-0.552,0-0.763
	L32.197,10.127z"/>
<path fill="#424143" d="M33.037,18.577c0-0.298-0.242-0.539-0.539-0.539h-4.05c-0.297,0-0.539,0.241-0.539,0.539v0.061
	c0,0.298,0.241,0.539,0.539,0.539h4.049c0.298,0,0.54-0.241,0.54-0.539V18.577z"/>
<path fill="#424143" d="M35.018,23.42c-0.211-0.211-0.553-0.211-0.763,0l-2.862,2.862c-0.211,0.21-0.211,0.551,0,0.762l0.043,0.043
	c0.211,0.21,0.553,0.21,0.763,0l2.862-2.862c0.211-0.211,0.211-0.552,0-0.762L35.018,23.42z"/>
<path fill="#424143" d="M40.441,25.981c0-0.297-0.241-0.538-0.539-0.538h-0.062c-0.298,0-0.539,0.241-0.539,0.538v4.049
	c0,0.298,0.241,0.539,0.538,0.539h0.063c0.298,0,0.539-0.24,0.539-0.537V25.981L40.441,25.981z"/>
<path fill="#424143" d="M45.488,23.42c-0.211-0.211-0.551-0.211-0.762,0l-0.043,0.043c-0.211,0.21-0.211,0.551,0,0.762l2.862,2.862
	c0.21,0.21,0.552,0.21,0.763,0l0.043-0.043c0.209-0.211,0.209-0.552,0-0.762L45.488,23.42z"/>
<path fill="#424143" stroke="#424143" stroke-miterlimit="10" d="M47.246,18.038c-0.298,0-0.538,0.241-0.538,0.539v0.061
	c-0.001,0.298,0.24,0.539,0.538,0.539h4.049c0.297,0,0.539-0.24,0.539-0.539v-0.062c0-0.297-0.242-0.538-0.538-0.538H47.246z"/>
<path fill="#424143" stroke="#424143" stroke-miterlimit="10" d="M44.684,12.99c-0.211,0.211-0.211,0.552,0,0.762l0.045,0.043
	c0.209,0.211,0.551,0.21,0.762,0l2.861-2.863c0.211-0.21,0.211-0.551,0-0.762l-0.043-0.043c-0.211-0.21-0.553-0.209-0.762,0
	L44.684,12.99z"/>
<path fill="#FFFFFF" stroke="#424143" stroke-width="2" stroke-miterlimit="10" d="M49.007,27.899
	c-1.278-4.25-5.082-7.334-9.577-7.334c-1.404,0-2.744,0.305-3.957,0.85c-2.216-3.3-5.882-5.051-10.034-5.051
	c-6.449,0-11.722,4.219-12.2,12.219H12.11c-4.676-0.001-8.466,2.565-8.466,6.999s3.79,7,8.465,7h35.272
	c4.674,0,8.465-2.979,8.465-7.412C55.848,31.266,52.902,28.567,49.007,27.899z"/>
</svg>
