<?xml version="1.0" encoding="utf-8"?>
<!-- Generator: Adobe Illustrator 16.0.0, SVG Export Plug-In . SVG Version: 6.00 Build 0)  -->
<!DOCTYPE svg PUBLIC "-//W3C//DTD SVG 1.1//EN" "http://www.w3.org/Graphics/SVG/1.1/DTD/svg11.dtd">
<svg version="1.1" id="Layer_1" xmlns="http://www.w3.org/2000/svg" xmlns:xlink="http://www.w3.org/1999/xlink" x="0px" y="0px"
	 width="60px" height="60px" viewBox="0 0 60 60" style="enable-background:new 0 0 60 60;" xml:space="preserve">
<style type="text/css">
<![CDATA[
	.st0{fill:#FFFFFF;stroke:#414042;stroke-width:1.7127;stroke-miterlimit:10;}
	.st1{fill:#FFFFFF;stroke:#414042;stroke-width:1.9234;stroke-miterlimit:10;}
]]>
</style>
<path class="st0" d="M53.143,26.033c-1.094-3.639-4.352-6.28-8.201-6.28c-1.203,0-2.35,0.262-3.389,0.728
	c-1.897-2.826-5.036-4.325-8.593-4.325c-5.522,0-10.037,3.613-10.447,10.463h-0.966c-4.004,0-7.25,2.197-7.25,5.994
	c0,3.796,3.246,5.994,7.249,5.994h30.204c4.003,0,7.249-2.55,7.249-6.346C59,28.916,56.479,26.605,53.143,26.033z"/>
<path class="st1" d="M44.845,28.924c-1.23-4.086-4.889-7.053-9.212-7.053c-1.351,0-2.638,0.293-3.806,0.817
	c-2.13-3.173-5.657-4.857-9.649-4.857c-6.203,0-11.273,4.057-11.733,11.751H9.36c-4.498-0.001-8.143,2.467-8.143,6.729
	c0,4.266,3.645,6.732,8.141,6.732h33.922c4.494,0,8.141-2.863,8.141-7.127C51.422,32.162,48.591,29.566,44.845,28.924z"/>
</svg>
