<?xml version="1.0" encoding="utf-8"?>
<!-- Generator: Adobe Illustrator 16.0.0, SVG Export Plug-In . SVG Version: 6.00 Build 0)  -->
<!DOCTYPE svg PUBLIC "-//W3C//DTD SVG 1.1//EN" "http://www.w3.org/Graphics/SVG/1.1/DTD/svg11.dtd">
<svg version="1.1" id="Layer_1" xmlns="http://www.w3.org/2000/svg" xmlns:xlink="http://www.w3.org/1999/xlink" x="0px" y="0px"
	 width="60px" height="60px" viewBox="0 0 60 60" enable-background="new 0 0 60 60" xml:space="preserve">
<path fill="#EDE43B" stroke="#424143" stroke-width="2" stroke-miterlimit="10" d="M46.332,18.056c0,2.83-2.295,5.125-5.126,5.125
	l0,0c-2.832,0-5.127-2.295-5.127-5.125l0,0c0-2.833,2.295-5.127,5.127-5.127l0,0C44.037,12.928,46.332,15.223,46.332,18.056
	L46.332,18.056z"/>
<path fill="#424143" stroke="#424143" stroke-miterlimit="10" d="M41.775,6.633c0-0.298-0.241-0.54-0.539-0.54h-0.063
	c-0.298,0-0.539,0.241-0.539,0.54v4.048c0,0.298,0.241,0.54,0.539,0.54h0.063c0.298,0,0.539-0.242,0.539-0.54V6.633z"/>
<path fill="#424143" stroke="#424143" stroke-miterlimit="10" d="M33.531,9.575c-0.211-0.21-0.553-0.21-0.764,0l-0.043,0.043
	c-0.209,0.211-0.209,0.552,0,0.763l2.861,2.862c0.211,0.211,0.553,0.211,0.766,0l0.041-0.042c0.211-0.21,0.211-0.552,0-0.763
	L33.531,9.575z"/>
<path fill="#424143" d="M34.371,18.025c0-0.298-0.242-0.539-0.539-0.539h-4.05c-0.298,0-0.539,0.241-0.539,0.539v0.062
	c0,0.297,0.241,0.538,0.539,0.538h4.049c0.298,0,0.54-0.241,0.54-0.538V18.025z"/>
<path fill="#424143" d="M36.352,22.868c-0.211-0.211-0.553-0.211-0.763,0l-2.862,2.862c-0.211,0.21-0.211,0.551,0,0.762l0.043,0.043
	c0.211,0.21,0.554,0.21,0.764,0l2.861-2.862c0.211-0.211,0.211-0.552,0-0.762L36.352,22.868z"/>
<path fill="#424143" d="M41.775,25.429c0-0.297-0.241-0.537-0.539-0.537h-0.063c-0.298,0-0.539,0.24-0.539,0.537v4.049
	c0,0.299,0.241,0.539,0.538,0.539h0.063c0.298,0,0.539-0.24,0.539-0.537V25.429L41.775,25.429z"/>
<path fill="#424143" d="M46.822,22.868c-0.211-0.211-0.551-0.211-0.762,0l-0.043,0.043c-0.211,0.21-0.211,0.551,0,0.762l2.861,2.862
	c0.21,0.21,0.553,0.21,0.764,0l0.043-0.043c0.209-0.211,0.209-0.552,0-0.762L46.822,22.868z"/>
<path fill="#424143" stroke="#424143" stroke-miterlimit="10" d="M48.58,17.486c-0.298,0-0.538,0.241-0.538,0.539v0.062
	c-0.001,0.297,0.24,0.538,0.538,0.538h4.049c0.297,0,0.539-0.239,0.539-0.538v-0.063c0-0.297-0.242-0.538-0.538-0.538H48.58z"/>
<path fill="#424143" stroke="#424143" stroke-miterlimit="10" d="M46.018,12.438c-0.211,0.211-0.211,0.552,0,0.762l0.045,0.043
	c0.209,0.211,0.551,0.21,0.763,0l2.86-2.863c0.211-0.21,0.211-0.551,0-0.762l-0.043-0.043c-0.211-0.21-0.553-0.209-0.762,0
	L46.018,12.438z"/>
<path fill="#FFFFFF" stroke="#424143" stroke-width="2" stroke-miterlimit="10" d="M50.341,27.347
	c-1.278-4.25-5.082-7.334-9.577-7.334c-1.404,0-2.744,0.306-3.957,0.851c-2.216-3.3-5.882-5.051-10.033-5.051
	c-6.449,0-11.723,4.219-12.201,12.219h-1.129c-4.675-0.001-8.465,2.565-8.465,6.999s3.79,7,8.465,7h35.271
	c4.674,0,8.465-2.979,8.465-7.412C57.182,30.714,54.236,28.015,50.341,27.347z"/>
<path fill="#414042" d="M23.5,51.688c0,0.795-0.644,1.438-1.438,1.438l0,0c-0.794,0-1.438-0.644-1.438-1.438v-5.5
	c0-0.793,0.644-1.438,1.438-1.438l0,0c0.794,0,1.438,0.645,1.438,1.438V51.688z"/>
<path fill="#414042" d="M31.438,53.564c0,1.139-0.644,2.061-1.438,2.061l0,0c-0.794,0-1.438-0.922-1.438-2.061v-7.881
	c0-1.138,0.644-2.06,1.438-2.06l0,0c0.794,0,1.438,0.922,1.438,2.06V53.564z"/>
<path fill="#414042" d="M39.428,51.688c0,0.795-0.644,1.438-1.438,1.438l0,0c-0.795,0-1.438-0.644-1.438-1.438v-5.5
	c0-0.793,0.644-1.438,1.438-1.438l0,0c0.794,0,1.438,0.645,1.438,1.438V51.688z"/>
</svg>
