<?xml version="1.0" encoding="utf-8"?>
<!-- Generator: Adobe Illustrator 16.0.0, SVG Export Plug-In . SVG Version: 6.00 Build 0)  -->
<!DOCTYPE svg PUBLIC "-//W3C//DTD SVG 1.1//EN" "http://www.w3.org/Graphics/SVG/1.1/DTD/svg11.dtd">
<svg version="1.1" id="Layer_1" xmlns="http://www.w3.org/2000/svg" xmlns:xlink="http://www.w3.org/1999/xlink" x="0px" y="0px"
	 width="60px" height="60px" viewBox="0 0 60 60" enable-background="new 0 0 60 60" xml:space="preserve">
<path fill="#424143" d="M33.037,20.577c0-0.298-0.242-0.539-0.539-0.539h-4.05c-0.297,0-0.539,0.241-0.539,0.539v0.061
	c0,0.298,0.241,0.539,0.539,0.539h4.049c0.298,0,0.54-0.241,0.54-0.539V20.577z"/>
<path fill="#424143" d="M35.018,25.42c-0.211-0.211-0.553-0.211-0.763,0l-2.862,2.862c-0.211,0.21-0.211,0.551,0,0.762l0.043,0.043
	c0.211,0.21,0.553,0.21,0.764,0l2.861-2.862c0.211-0.211,0.211-0.552,0-0.762L35.018,25.42z"/>
<path fill="#424143" d="M40.441,27.981c0-0.297-0.241-0.538-0.539-0.538H39.84c-0.298,0-0.539,0.241-0.539,0.538v4.048
	c0,0.299,0.241,0.539,0.538,0.539h0.063c0.298,0,0.539-0.24,0.539-0.537V27.981L40.441,27.981z"/>
<path fill="#424143" d="M45.488,25.42c-0.211-0.211-0.551-0.211-0.762,0l-0.043,0.043c-0.211,0.21-0.211,0.551,0,0.762l2.861,2.862
	c0.21,0.21,0.553,0.21,0.764,0l0.043-0.043c0.209-0.211,0.209-0.552,0-0.762L45.488,25.42z"/>
<g>
	<path fill="#EDE43B" stroke="#414042" stroke-width="2" stroke-miterlimit="10" d="M39.557,17.073
		c-0.535-5.048,2.274-9.67,6.643-11.684c-0.805-0.067-1.629-0.063-2.463,0.026c-7.15,0.758-12.334,7.17-11.575,14.321
		c0.759,7.151,7.171,12.334,14.321,11.575c3.551-0.375,6.613-2.146,8.707-4.708c-0.928,0.358-1.91,0.615-2.945,0.725
		C45.907,27.999,40.229,23.408,39.557,17.073z"/>
	<path fill="#EDE43B" stroke="#414042" stroke-width="2" stroke-miterlimit="10" d="M58.059,16.99"/>
</g>
<path fill="#FFFFFF" stroke="#424143" stroke-width="2" stroke-miterlimit="10" d="M49.007,29.899
	c-1.278-4.25-5.082-7.334-9.577-7.334c-1.404,0-2.744,0.305-3.957,0.85c-2.216-3.3-5.882-5.051-10.034-5.051
	c-6.449,0-11.722,4.219-12.2,12.219H12.11c-4.676-0.001-8.466,2.565-8.466,6.999s3.79,7,8.465,7h35.272
	c4.674,0,8.465-2.979,8.465-7.412C55.848,33.266,52.902,30.566,49.007,29.899z"/>
<path fill="#414042" d="M23.947,55.063c0,0.795-0.645,1.438-1.438,1.438l0,0c-0.794,0-1.438-0.644-1.438-1.438v-5.5
	c0-0.793,0.644-1.438,1.438-1.438l0,0c0.793,0,1.438,0.645,1.438,1.438V55.063z"/>
<path fill="#414042" d="M31.885,56.939c0,1.139-0.644,2.061-1.438,2.061l0,0c-0.794,0-1.438-0.922-1.438-2.061v-7.881
	c0-1.139,0.644-2.061,1.438-2.061l0,0c0.794,0,1.438,0.922,1.438,2.061V56.939z"/>
<path fill="#414042" d="M39.875,55.063c0,0.795-0.645,1.438-1.438,1.438l0,0c-0.795,0-1.438-0.644-1.438-1.438v-5.5
	c0-0.793,0.644-1.438,1.438-1.438l0,0c0.793,0,1.438,0.645,1.438,1.438V55.063z"/>
</svg>
