<?xml version="1.0" encoding="utf-8"?>
<!-- Generator: Adobe Illustrator 16.0.0, SVG Export Plug-In . SVG Version: 6.00 Build 0)  -->
<!DOCTYPE svg PUBLIC "-//W3C//DTD SVG 1.1//EN" "http://www.w3.org/Graphics/SVG/1.1/DTD/svg11.dtd">
<svg version="1.1" id="Layer_1" xmlns="http://www.w3.org/2000/svg" xmlns:xlink="http://www.w3.org/1999/xlink" x="0px" y="0px"
	 width="60px" height="60px" viewBox="0 0 60 60" enable-background="new 0 0 60 60" xml:space="preserve">
<path fill="#FFFFFF" stroke="#414042" stroke-width="2" stroke-miterlimit="10" d="M7.375,22.75c0,0,7-7.75,14.75,0
	c0,0,6.5,5.75,13,0c0,0,8.875-9.139,14.875-0.444"/>
<path fill="#FFFFFF" stroke="#414042" stroke-width="2" stroke-miterlimit="10" d="M8.125,30.82c0,0,7-7.75,14.75,0
	c0,0,6.5,5.75,13,0c0,0,8.875-9.139,14.875-0.444"/>
<path fill="#FFFFFF" stroke="#414042" stroke-width="2" stroke-miterlimit="10" d="M8.688,38.787c0,0,7-7.75,14.75,0
	c0,0,6.5,5.75,13,0c0,0,8.875-9.139,14.875-0.444"/>
</svg>
